P3
4 4
255
0 0 0 29 29 29 0 0 0 105 105 105 
0 0 0 169 169 169 0 0 0 0 0 0 
0 0 0 0 0 0 28 28 28 0 0 0 
105 105 105 0 0 0 0 0 0 255 255 255 
